<svg aria-hidden="true" style="position:absolute;width:0;height:0" xmlns="http://www.w3.org/2000/svg" overflow="hidden"><defs><symbol id="icon-vk" viewBox="0 0 32 32"><path fill="var(--color1, #1e97db)" d="M32 16c0 8.837-7.163 16-16 16S0 24.837 0 16 7.163 0 16 0s16 7.163 16 16z"/><path fill="var(--color2, #fff)" d="M22.473 18.193c.692.706 1.419 1.371 2.039 2.147.274.346.533.702.731 1.103.281.57.026 1.197-.461 1.231l-3.032-.002c-.782.068-1.406-.261-1.93-.822-.42-.448-.809-.925-1.213-1.388a2.929 2.929 0 00-.537-.502l-.009-.006c-.414-.282-.774-.195-1.011.258-.241.459-.295.968-.319 1.481-.032.747-.248.945-.965.979-1.533.075-2.987-.167-4.339-.978-1.191-.713-2.116-1.722-2.919-2.863-1.566-2.221-2.765-4.664-3.842-7.174-.243-.566-.066-.869.531-.879.989-.021 1.978-.02 2.968-.002.403.006.669.248.824.646.535 1.378 1.19 2.69 2.012 3.905.219.324.442.647.76.875.351.253.619.169.785-.242a2.75 2.75 0 00.175-.81v-.008c.077-.96.088-1.917-.05-2.872-.084-.597-.405-.983-.972-1.094-.289-.059-.248-.171-.106-.345.244-.299.473-.485.929-.485h3.427c.54.111.66.365.733.934l.003 3.988c-.006.22.105.873.484 1.019.302.104.502-.15.684-.351.82-.913 1.406-1.99 1.928-3.107.232-.49.433-1 .626-1.509.143-.378.369-.565.774-.556l3.299.003c.097 0 .196.002.291.019.555.099.708.35.537.919-.27.892-.797 1.635-1.311 2.381-.551.798-1.139 1.568-1.685 2.37-.501.733-.461 1.101.161 1.737z"/></symbol><symbol id="icon-youtube" viewBox="0 0 32 32"><path fill="var(--color3, #ff2507)" d="M32 16c0 8.837-7.163 16-16 16S0 24.837 0 16 7.163 0 16 0s16 7.163 16 16z"/><path fill="var(--color2, #fff)" d="M24.741 11.089c-.644-.723-1.833-1.018-4.104-1.018h-8.243c-2.323 0-3.53.314-4.172 1.084-.626.75-.626 1.856-.626 3.387v2.917c0 2.965.742 4.47 4.799 4.47h8.243c1.969 0 3.06-.26 3.766-.898.724-.653 1.032-1.722 1.032-3.572v-2.917c0-1.613-.047-2.726-.695-3.453zm-5.692 5.314l-3.743 1.848a.6.6 0 01-.568-.018l.003.002a.54.54 0 01-.277-.464v-3.684c0-.19.104-.365.277-.465a.594.594 0 01.567-.016l-.004-.002 3.743 1.835a.54.54 0 01.31.482.544.544 0 01-.305.481l-.003.001z"/></symbol><symbol id="icon-inst" viewBox="0 0 32 32"><path fill="var(--color4, #000)" d="M32 16c0 8.837-7.163 16-16 16S0 24.837 0 16 7.163 0 16 0s16 7.163 16 16z"/><path fill="var(--color2, #fff)" d="M20.265 24.424h-7.498c-2.839 0-5.148-2.181-5.148-4.862v-7.124c0-2.682 2.309-4.862 5.148-4.862h7.498c2.839 0 5.148 2.18 5.148 4.862v7.125c0 2.682-2.309 4.862-5.148 4.862zM12.767 9.573c-1.672 0-3.033 1.285-3.033 2.865v7.125c0 1.579 1.361 2.865 3.033 2.865h7.498c1.672 0 3.033-1.285 3.033-2.863v-7.127c0-1.579-1.361-2.863-3.033-2.863h-7.498z"/><path fill="var(--color2, #fff)" d="M16.516 20.168c-2.434 0-4.414-1.869-4.414-4.168s1.98-4.168 4.414-4.168c2.434 0 4.414 1.869 4.414 4.168s-1.98 4.168-4.414 4.168zm0-6.387c-1.295 0-2.35.995-2.35 2.219s1.055 2.219 2.35 2.219c1.295 0 2.35-.995 2.35-2.219s-1.055-2.219-2.35-2.219zm4.517-1.311c-.429 0-.779-.33-.779-.736s.351-.736.779-.736c.43 0 .779.33.779.736s-.349.736-.779.736z"/></symbol><symbol id="icon-arrow" viewBox="0 0 32 32"><path fill="none" stroke="var(--color5, #7d7d7d)" stroke-width=".615" d="M.308 16C.308 7.333 7.334.308 16 .308S31.692 7.334 31.692 16c0 8.667-7.026 15.692-15.692 15.692S.308 24.666.308 16z"/><path fill="none" stroke="var(--color5, #7d7d7d)" stroke-width=".615" d="M13.846 23.385L21.231 16l-7.385-7.385"/></symbol></defs></svg>