<!-- Generated by IcoMoon.io -->
<svg version="1.1" xmlns="http://www.w3.org/2000/svg"  viewBox="0 0 32 32">
<title>youtube</title>
<path fill="#ff2507" d="M32 16c0 8.837-7.163 16-16 16s-16-7.163-16-16c0-8.837 7.163-16 16-16s16 7.163 16 16z"></path>
<path fill="#fff" d="M24.741 11.089c-0.644-0.723-1.833-1.018-4.104-1.018h-8.243c-2.323 0-3.53 0.314-4.172 1.084-0.626 0.75-0.626 1.856-0.626 3.387v2.917c0 2.965 0.742 4.47 4.799 4.47h8.243c1.969 0 3.060-0.26 3.766-0.898 0.724-0.653 1.032-1.722 1.032-3.572v-2.917c0-1.613-0.047-2.726-0.695-3.453zM19.049 16.403l-3.743 1.848c-0.078 0.039-0.17 0.063-0.267 0.063-0.11 0-0.212-0.029-0.301-0.081l0.003 0.002c-0.165-0.093-0.274-0.266-0.277-0.464v-3.684c0-0.19 0.104-0.365 0.277-0.465 0.086-0.050 0.189-0.079 0.298-0.079 0.097 0 0.188 0.023 0.269 0.063l-0.004-0.002 3.743 1.835c0.19 0.093 0.31 0.279 0.31 0.482-0.003 0.212-0.127 0.394-0.305 0.481l-0.003 0.001z"></path>
</svg>
