<!-- Generated by IcoMoon.io -->
<svg version="1.1" xmlns="http://www.w3.org/2000/svg" width="32" height="32" viewBox="0 0 32 32">
<title>inst</title>
<path fill="rgb(185,38,170)" d="M32 16c0 8.837-7.163 16-16 16s-16-7.163-16-16c0-8.837 7.163-16 16-16s16 7.163 16 16z"></path>
<path fill="#fff" d="M20.265 24.424h-7.498c-2.839 0-5.148-2.181-5.148-4.862v-7.124c0-2.682 2.309-4.862 5.148-4.862h7.498c2.839 0 5.148 2.18 5.148 4.862v7.125c0 2.682-2.309 4.862-5.148 4.862zM12.767 9.573c-1.672 0-3.033 1.285-3.033 2.865v7.125c0 1.579 1.361 2.865 3.033 2.865h7.498c1.672 0 3.033-1.285 3.033-2.863v-7.127c0-1.579-1.361-2.863-3.033-2.863h-7.498z"></path>
<path fill="#fff" d="M16.516 20.168c-2.434 0-4.414-1.869-4.414-4.168s1.98-4.168 4.414-4.168c2.434 0 4.414 1.869 4.414 4.168s-1.98 4.168-4.414 4.168zM16.516 13.781c-1.295 0-2.35 0.995-2.35 2.219s1.055 2.219 2.35 2.219c1.295 0 2.35-0.995 2.35-2.219s-1.055-2.219-2.35-2.219zM21.033 12.47c-0.429 0-0.779-0.33-0.779-0.736s0.351-0.736 0.779-0.736c0.43 0 0.779 0.33 0.779 0.736s-0.349 0.736-0.779 0.736z"></path>
</svg>
