<svg aria-hidden="true" style="position: absolute; width: 0; height: 0; overflow: hidden;" version="1.1" xmlns="http://www.w3.org/2000/svg" xmlns:xlink="http://www.w3.org/1999/xlink">
<defs>
<symbol id="icon-vk" viewBox="0 0 32 32">
<path fill="#1e97db" style="fill: var(--color1, #1e97db)" d="M32 16c0 8.837-7.163 16-16 16s-16-7.163-16-16c0-8.837 7.163-16 16-16s16 7.163 16 16z"></path>
<path fill="#fff" style="fill: var(--color2, #fff)" d="M22.473 18.193c0.692 0.706 1.419 1.371 2.039 2.147 0.274 0.346 0.533 0.702 0.731 1.103 0.281 0.57 0.026 1.197-0.461 1.231l-3.032-0.002c-0.782 0.068-1.406-0.261-1.93-0.822-0.42-0.448-0.809-0.925-1.213-1.388-0.16-0.192-0.339-0.359-0.537-0.502l-0.009-0.006c-0.414-0.282-0.774-0.195-1.011 0.258-0.241 0.459-0.295 0.968-0.319 1.481-0.032 0.747-0.248 0.945-0.965 0.979-1.533 0.075-2.987-0.167-4.339-0.978-1.191-0.713-2.116-1.722-2.919-2.863-1.566-2.221-2.765-4.664-3.842-7.174-0.243-0.566-0.066-0.869 0.531-0.879 0.989-0.021 1.978-0.020 2.968-0.002 0.403 0.006 0.669 0.248 0.824 0.646 0.535 1.378 1.19 2.69 2.012 3.905 0.219 0.324 0.442 0.647 0.76 0.875 0.351 0.253 0.619 0.169 0.785-0.242 0.094-0.241 0.156-0.52 0.175-0.81l0-0.008c0.077-0.96 0.088-1.917-0.050-2.872-0.084-0.597-0.405-0.983-0.972-1.094-0.289-0.059-0.248-0.171-0.106-0.345 0.244-0.299 0.473-0.485 0.929-0.485h3.427c0.54 0.111 0.66 0.365 0.733 0.934l0.003 3.988c-0.006 0.22 0.105 0.873 0.484 1.019 0.302 0.104 0.502-0.15 0.684-0.351 0.82-0.913 1.406-1.99 1.928-3.107 0.232-0.49 0.433-1 0.626-1.509 0.143-0.378 0.369-0.565 0.774-0.556l3.299 0.003c0.097 0 0.196 0.002 0.291 0.019 0.555 0.099 0.708 0.35 0.537 0.919-0.27 0.892-0.797 1.635-1.311 2.381-0.551 0.798-1.139 1.568-1.685 2.37-0.501 0.733-0.461 1.101 0.161 1.737z"></path>
</symbol>
<symbol id="icon-youtube" viewBox="0 0 32 32">
<path fill="#ff2507" style="fill: var(--color3, #ff2507)" d="M32 16c0 8.837-7.163 16-16 16s-16-7.163-16-16c0-8.837 7.163-16 16-16s16 7.163 16 16z"></path>
<path fill="#fff" style="fill: var(--color2, #fff)" d="M24.741 11.089c-0.644-0.723-1.833-1.018-4.104-1.018h-8.243c-2.323 0-3.53 0.314-4.172 1.084-0.626 0.75-0.626 1.856-0.626 3.387v2.917c0 2.965 0.742 4.47 4.799 4.47h8.243c1.969 0 3.060-0.26 3.766-0.898 0.724-0.653 1.032-1.722 1.032-3.572v-2.917c0-1.613-0.047-2.726-0.695-3.453zM19.049 16.403l-3.743 1.848c-0.078 0.039-0.17 0.063-0.267 0.063-0.11 0-0.212-0.029-0.301-0.081l0.003 0.002c-0.165-0.093-0.274-0.266-0.277-0.464v-3.684c0-0.19 0.104-0.365 0.277-0.465 0.086-0.050 0.189-0.079 0.298-0.079 0.097 0 0.188 0.023 0.269 0.063l-0.004-0.002 3.743 1.835c0.19 0.093 0.31 0.279 0.31 0.482-0.003 0.212-0.127 0.394-0.305 0.481l-0.003 0.001z"></path>
</symbol>
<symbol id="icon-inst" viewBox="0 0 32 32">
<path fill="#000" style="fill: var(--color4, #000)" d="M32 16c0 8.837-7.163 16-16 16s-16-7.163-16-16c0-8.837 7.163-16 16-16s16 7.163 16 16z"></path>
<path fill="#fff" style="fill: var(--color2, #fff)" d="M20.265 24.424h-7.498c-2.839 0-5.148-2.181-5.148-4.862v-7.124c0-2.682 2.309-4.862 5.148-4.862h7.498c2.839 0 5.148 2.18 5.148 4.862v7.125c0 2.682-2.309 4.862-5.148 4.862zM12.767 9.573c-1.672 0-3.033 1.285-3.033 2.865v7.125c0 1.579 1.361 2.865 3.033 2.865h7.498c1.672 0 3.033-1.285 3.033-2.863v-7.127c0-1.579-1.361-2.863-3.033-2.863h-7.498z"></path>
<path fill="#fff" style="fill: var(--color2, #fff)" d="M16.516 20.168c-2.434 0-4.414-1.869-4.414-4.168s1.98-4.168 4.414-4.168c2.434 0 4.414 1.869 4.414 4.168s-1.98 4.168-4.414 4.168zM16.516 13.781c-1.295 0-2.35 0.995-2.35 2.219s1.055 2.219 2.35 2.219c1.295 0 2.35-0.995 2.35-2.219s-1.055-2.219-2.35-2.219zM21.033 12.47c-0.429 0-0.779-0.33-0.779-0.736s0.351-0.736 0.779-0.736c0.43 0 0.779 0.33 0.779 0.736s-0.349 0.736-0.779 0.736z"></path>
</symbol>
<symbol id="icon-arrow" viewBox="0 0 32 32">
<path fill="none" stroke="#7d7d7d" style="stroke: var(--color5, #7d7d7d)" stroke-linejoin="miter" stroke-linecap="butt" stroke-miterlimit="4" stroke-width="0.6154" d="M0.308 16c0-8.667 7.026-15.692 15.692-15.692s15.692 7.026 15.692 15.692c0 8.667-7.026 15.692-15.692 15.692s-15.692-7.026-15.692-15.692z"></path>
<path fill="none" stroke="#7d7d7d" style="stroke: var(--color5, #7d7d7d)" stroke-linejoin="miter" stroke-linecap="butt" stroke-miterlimit="4" stroke-width="0.6154" d="M13.846 23.385l7.385-7.385-7.385-7.385"></path>
</symbol>
</defs>
</svg>
