<!-- Generated by IcoMoon.io -->
<svg version="1.1" xmlns="http://www.w3.org/2000/svg" width="32" height="32" viewBox="0 0 32 32">
<title>vk</title>
<path fill="#1e97db" d="M32 16c0 8.837-7.163 16-16 16s-16-7.163-16-16c0-8.837 7.163-16 16-16s16 7.163 16 16z"></path>
<path fill="#fff" d="M22.473 18.193c0.692 0.706 1.419 1.371 2.039 2.147 0.274 0.346 0.533 0.702 0.731 1.103 0.281 0.57 0.026 1.197-0.461 1.231l-3.032-0.002c-0.782 0.068-1.406-0.261-1.93-0.822-0.42-0.448-0.809-0.925-1.213-1.388-0.16-0.192-0.339-0.359-0.537-0.502l-0.009-0.006c-0.414-0.282-0.774-0.195-1.011 0.258-0.241 0.459-0.295 0.968-0.319 1.481-0.032 0.747-0.248 0.945-0.965 0.979-1.533 0.075-2.987-0.167-4.339-0.978-1.191-0.713-2.116-1.722-2.919-2.863-1.566-2.221-2.765-4.664-3.842-7.174-0.243-0.566-0.066-0.869 0.531-0.879 0.989-0.021 1.978-0.020 2.968-0.002 0.403 0.006 0.669 0.248 0.824 0.646 0.535 1.378 1.19 2.69 2.012 3.905 0.219 0.324 0.442 0.647 0.76 0.875 0.351 0.253 0.619 0.169 0.785-0.242 0.094-0.241 0.156-0.52 0.175-0.81l0-0.008c0.077-0.96 0.088-1.917-0.050-2.872-0.084-0.597-0.405-0.983-0.972-1.094-0.289-0.059-0.248-0.171-0.106-0.345 0.244-0.299 0.473-0.485 0.929-0.485h3.427c0.54 0.111 0.66 0.365 0.733 0.934l0.003 3.988c-0.006 0.22 0.105 0.873 0.484 1.019 0.302 0.104 0.502-0.15 0.684-0.351 0.82-0.913 1.406-1.99 1.928-3.107 0.232-0.49 0.433-1 0.626-1.509 0.143-0.378 0.369-0.565 0.774-0.556l3.299 0.003c0.097 0 0.196 0.002 0.291 0.019 0.555 0.099 0.708 0.35 0.537 0.919-0.27 0.892-0.797 1.635-1.311 2.381-0.551 0.798-1.139 1.568-1.685 2.37-0.501 0.733-0.461 1.101 0.161 1.737z"></path>
</svg>
